<svg xmlns="http://www.w3.org/2000/svg" width="153.667" height="90.112" viewBox="0 0 153.667 90.112">
  <g id="footer-logo" transform="translate(-28.3 -86.741)">
    <g id="Group_2973" data-name="Group 2973" transform="translate(28.3 86.741)">
      <path id="Path_7211" data-name="Path 7211" d="M53.565,126.324a14.317,14.317,0,1,1,14.317-14.317H78.831a25.265,25.265,0,1,0-25.265,25.265A14.329,14.329,0,0,1,67.411,148.01H78.573A25.3,25.3,0,0,0,53.565,126.324Z" transform="translate(-28.3 -86.741)" fill="#0e2545"/>
      <path id="Path_7212" data-name="Path 7212" d="M147.614,195.24a7.521,7.521,0,0,1-5.325-2.115l.641-.736a6.417,6.417,0,0,0,4.74,1.963c1.982,0,3.343-1.113,3.343-2.625v-.037c0-1.4-.736-2.209-3.74-2.813-3.172-.643-4.456-1.718-4.456-3.721v-.037c0-1.964,1.793-3.474,4.248-3.474a6.59,6.59,0,0,1,4.532,1.6l-.622.775a5.692,5.692,0,0,0-3.947-1.493c-1.945,0-3.228,1.115-3.228,2.493v.038c0,1.4.717,2.247,3.852,2.889,3.058.622,4.343,1.718,4.343,3.644v.037C151.995,193.768,150.162,195.24,147.614,195.24Z" transform="translate(-84.802 -133.783)" fill="#0e2545"/>
      <path id="Path_7213" data-name="Path 7213" d="M189.882,195.237v-11.48l-5.231,7.609h-.075l-5.231-7.609v11.48H178.4V182.02h.925l5.306,7.817,5.306-7.817h.925v13.217Z" transform="translate(-102.702 -133.969)" fill="#0e2545"/>
      <path id="Path_7214" data-name="Path 7214" d="M221.624,195.237V182.02h.982v13.217Z" transform="translate(-124.127 -133.969)" fill="#0e2545"/>
      <path id="Path_7215" data-name="Path 7215" d="M242.093,195.237V182.02h.981v12.31h7.761v.907Z" transform="translate(-134.273 -133.969)" fill="#0e2545"/>
      <path id="Path_7216" data-name="Path 7216" d="M275.734,195.237V182.02h9.4v.906h-8.422v5.193h7.573v.907h-7.573v5.3h8.515v.907Z" transform="translate(-150.948 -133.969)" fill="#0e2545"/>
      <path id="Path_7217" data-name="Path 7217" d="M315.236,189.989v5.248h-.982v-5.23l-5.665-7.987h1.228l4.946,7.1,4.967-7.1H320.9Z" transform="translate(-167.234 -133.969)" fill="#0e2545"/>
    </g>
    <g id="Group_2974" data-name="Group 2974" transform="translate(28.3 151.378)">
      <path id="Path_7218" data-name="Path 7218" d="M67.882,215.119a14.317,14.317,0,1,1-28.634,0H28.3a25.265,25.265,0,1,0,50.531,0c0-.071-.005-.14-.006-.211H67.872C67.873,214.979,67.882,215.048,67.882,215.119Z" transform="translate(-28.3 -214.908)" fill="#ffb81c"/>
      <path id="Path_7219" data-name="Path 7219" d="M146.587,216.685h1.722v8.232h5.152v1.568h-6.874Z" transform="translate(-86.932 -215.789)" fill="#ffb81c"/>
      <path id="Path_7220" data-name="Path 7220" d="M177.891,226.416h-1.819l-.994-2.366h-4.634l-1.009,2.366h-1.764l4.312-9.869h1.6Zm-5.137-7.811-1.68,3.921h3.374Z" transform="translate(-97.384 -215.72)" fill="#ffb81c"/>
      <path id="Path_7221" data-name="Path 7221" d="M199.444,216.63H200.9l2.408,7.293,2.338-7.266h1.807l-3.416,9.87h-1.485l-2.408-7.042-2.408,7.042h-1.483l-3.416-9.87H194.7l2.338,7.266Z" transform="translate(-109.858 -215.762)" fill="#ffb81c"/>
      <path id="Path_7222" data-name="Path 7222" d="M252.075,218.253H246.5v2.675h4.943V222.5H246.5v3.989h-1.722v-9.8h7.294Z" transform="translate(-135.605 -215.789)" fill="#ffb81c"/>
      <path id="Path_7223" data-name="Path 7223" d="M270.477,216.685v9.8h-1.722v-9.8Z" transform="translate(-147.489 -215.789)" fill="#ffb81c"/>
      <path id="Path_7224" data-name="Path 7224" d="M289.209,226.484l-2.408-3.416h-2.156v3.416h-1.722v-9.8h4.368c2.253,0,3.64,1.19,3.64,3.108a2.935,2.935,0,0,1-2.338,2.982l2.645,3.71Zm-2.058-8.232h-2.506v3.29h2.52c1.231,0,2.016-.644,2.016-1.652C289.181,218.812,288.425,218.253,287.152,218.253Z" transform="translate(-154.511 -215.789)" fill="#ffb81c"/>
      <path id="Path_7225" data-name="Path 7225" d="M313.378,224.077h-.056l-3.066-4.592v7h-1.694v-9.8H310.4l2.982,4.634,2.982-4.634h1.834v9.8h-1.721v-7.027Z" transform="translate(-167.22 -215.789)" fill="#ffb81c"/>
    </g>
  </g>
</svg>
